<svg xmlns="http://www.w3.org/2000/svg" viewBox="0 0 114 128"><defs><style>.cls-1{fill:#fff;}.cls-2{fill:#009688;}</style></defs><title>ic_gmap_active</title><g id="アクティブ"><path class="cls-1" d="M49,111.42l-.9-.15a55,55,0,1,1,17.8,0l-.9.15-8,12.81Z"/><path class="cls-2" d="M57,4a53,53,0,0,1,8.58,105.3l-1.79.29-1,1.54L57,120.45l-5.83-9.32-1-1.54-1.79-.29A53,53,0,0,1,57,4m0-4a57,57,0,0,0-9.22,113.25L57,128l9.22-14.75A57,57,0,0,0,57,0Z"/><path class="cls-2" d="M84.57,59.13,65.43,45.26a4.38,4.38,0,0,0-2.42-.6l-6.52.3a4.46,4.46,0,0,0-3.27,1.67l-5.68,7.13-4.75-5.41a4.4,4.4,0,0,0-4.21-1.43l-4.45.9a4.44,4.44,0,0,0-3,2.15L24.37,61.85a.45.45,0,0,1-.76,0L13.8,47.55a.18.18,0,0,0-.32.16l7.34,19.56a1.33,1.33,0,0,0,.64.72L31.53,73.2a4.44,4.44,0,0,0,4.51,0l11.5-6,17.58,6.5a4.44,4.44,0,0,0,3.67-.12L91,64.4a1.34,1.34,0,0,0,.74-.77l8.78-23.39a.18.18,0,0,0-.31-.17l-15,19A.45.45,0,0,1,84.57,59.13Z"/></g></svg>